<svg xmlns="http://www.w3.org/2000/svg" viewBox="0 0 512 512" width="100%" height="100%">
  <defs>
    <linearGradient id="shieldGrad" x1="0%" y1="0%" x2="100%" y2="100%">
      <stop offset="0%" stop-color="#0F172A"/>
      <stop offset="100%" stop-color="#1E293B"/>
    </linearGradient>
    <linearGradient id="pinGrad" x1="0%" y1="0%" x2="0%" y2="100%">
      <stop offset="0%" stop-color="#10B981"/>
      <stop offset="100%" stop-color="#059669"/>
    </linearGradient>
  </defs>
  <path d="M256 32 C340 32, 420 64, 448 96 C448 240, 384 384, 256 480 C128 384, 64 240, 64 96 C92 64, 172 32, 256 32 Z" fill="url(#shieldGrad)" stroke="#334155" stroke-width="12" stroke-linejoin="round"/>
  <path d="M256 128 C203 128 160 171 160 224 C160 296 256 384 256 384 C256 384 352 296 352 224 C352 171 309 128 256 128 Z" fill="url(#pinGrad)"/>
  <circle cx="256" cy="224" r="32" fill="#FFFFFF"/>
</svg>
